<svg xmlns="http://www.w3.org/2000/svg" viewBox="0 0 100 100"><defs><style>.cls-1{fill:#94fffa;}.cls-2{fill:#00d8e8;}.cls-3{fill:#fff;}</style></defs><g id="Layer_2" data-name="Layer 2"><g id="Layer_1-2" data-name="Layer 1"><circle class="cls-1" cx="50" cy="50" r="50"/><path class="cls-2" d="M50,7A43,43,0,1,1,7,50,43,43,0,0,1,50,7m0-7a50,50,0,1,0,50,50A50,50,0,0,0,50,0Z"/><polygon class="cls-3" points="50 27.65 55.55 44.72 73.5 44.72 58.98 55.28 64.52 72.35 50 61.8 35.48 72.35 41.02 55.28 26.5 44.72 44.45 44.72 50 27.65"/><path class="cls-2" d="M50,37.36l2.69,8.29.68,2.07h10.9l-7.06,5.13-1.76,1.28.67,2.07,2.7,8.3-7.06-5.13L50,58.09l-1.76,1.28L41.18,64.5l2.7-8.3.67-2.07-1.76-1.28-7.06-5.13h10.9l.68-2.07L50,37.36m0-9.71L44.45,44.72h-18L41,55.28,35.48,72.35,50,61.8,64.52,72.35,59,55.28,73.5,44.72h-18L50,27.65Z"/></g></g></svg>